<svg width="147" height="147" viewBox="0 0 147 147" fill="none" xmlns="http://www.w3.org/2000/svg">
<circle cx="73.5" cy="73.5" r="73.5" fill="black"/>
<path d="M65.1603 45.8326C65.1603 47.6271 64.7277 49.3093 63.8625 50.8795C63.0294 52.4496 61.6996 53.7153 59.8731 54.6766C58.0787 55.6379 55.8036 56.1186 53.0479 56.1186H47.4242V69H40.6951V35.4506H53.0479C55.6434 35.4506 57.8544 35.8992 59.6808 36.7964C61.5073 37.6936 62.8692 38.9273 63.7664 40.4974C64.6956 42.0675 65.1603 43.846 65.1603 45.8326ZM52.7595 50.6872C54.618 50.6872 55.9958 50.2706 56.8931 49.4375C57.7903 48.5723 58.2389 47.3707 58.2389 45.8326C58.2389 42.5642 56.4124 40.93 52.7595 40.93H47.4242V50.6872H52.7595Z" fill="white"/>
<path d="M96.0203 113.336C92.88 113.336 89.9961 112.599 87.3686 111.125C84.741 109.651 82.6582 107.617 81.1201 105.021C79.582 102.394 78.813 99.4296 78.813 96.1292C78.813 92.8607 79.582 89.9288 81.1201 87.3333C82.6582 84.7057 84.741 82.6549 87.3686 81.1809C89.9961 79.7069 92.88 78.9699 96.0203 78.9699C99.1926 78.9699 102.076 79.7069 104.672 81.1809C107.3 82.6549 109.366 84.7057 110.872 87.3333C112.41 89.9288 113.18 92.8607 113.18 96.1292C113.18 99.4296 112.41 102.394 110.872 105.021C109.366 107.617 107.3 109.651 104.672 111.125C102.044 112.599 99.1605 113.336 96.0203 113.336ZM96.0203 107.328C98.039 107.328 99.8174 106.88 101.355 105.983C102.894 105.053 104.095 103.739 104.96 102.041C105.826 100.343 106.258 98.3722 106.258 96.1292C106.258 93.8861 105.826 91.9315 104.96 90.2652C104.095 88.5669 102.894 87.2692 101.355 86.372C99.8174 85.4747 98.039 85.0261 96.0203 85.0261C94.0015 85.0261 92.2071 85.4747 90.637 86.372C89.0989 87.2692 87.8973 88.5669 87.0321 90.2652C86.1669 91.9315 85.7344 93.8861 85.7344 96.1292C85.7344 98.3722 86.1669 100.343 87.0321 102.041C87.8973 103.739 89.0989 105.053 90.637 105.983C92.2071 106.88 94.0015 107.328 96.0203 107.328Z" fill="white"/>
<line x1="51.6464" y1="95.4243" x2="95.4243" y2="51.6464" stroke="white"/>
</svg>
